<svg width="160" height="160" viewBox="0 0 160 160" fill="none" xmlns="http://www.w3.org/2000/svg">
<g filter="url(#filter0_d_26_828)">
<rect x="6" y="6" width="148" height="148" rx="7" fill="white"/>
</g>
<g style="mix-blend-mode:darken">
<rect x="5" y="5" width="150" height="150" rx="7" fill="#FC8701"/>
</g>
<g filter="url(#filter1_i_26_828)">
<rect x="10" y="10" width="140" height="140" rx="4" fill="#090C1A"/>
</g>
<path d="M24.468 16.912C24.192 17.224 23.868 17.602 23.496 18.046C23.136 18.478 22.752 18.964 22.344 19.504C21.936 20.032 21.516 20.596 21.084 21.196C20.652 21.784 20.226 22.384 19.806 22.996C19.398 23.596 19.008 24.196 18.636 24.796C18.264 25.396 17.928 25.966 17.628 26.506H24.648V28H15.594V26.83C15.846 26.35 16.14 25.822 16.476 25.246C16.824 24.67 17.19 24.082 17.574 23.482C17.97 22.882 18.378 22.276 18.798 21.664C19.218 21.052 19.632 20.464 20.04 19.9C20.46 19.336 20.862 18.808 21.246 18.316C21.642 17.824 22.002 17.392 22.326 17.02H15.918V15.526H24.468V16.912Z" fill="white" fill-opacity="0.9"/>
<g filter="url(#filter2_d_26_828)">
<path d="M85.6239 80C84.8506 78.4533 83.9972 76.8933 83.0639 75.32C82.1572 73.72 81.1039 72.0933 79.9039 70.44C79.5306 70.92 79.0506 71.5867 78.4639 72.44C77.9039 73.2933 77.3306 74.2 76.7439 75.16C76.1839 76.12 75.6506 77.04 75.1439 77.92C74.6372 78.8 74.2639 79.4933 74.0239 80H66.9039C68.0772 77.84 69.4372 75.5733 70.9839 73.2C72.5572 70.8267 74.3039 68.3067 76.2239 65.64L67.3039 52.28H74.8639L80.2639 60.92L85.5439 52.28H92.6639L83.8639 65.72C86.1039 68.6267 87.9839 71.32 89.5039 73.8C91.0239 76.2533 92.2239 78.32 93.1039 80H85.6239Z" fill="#FC8701"/>
</g>
<path d="M43.5106 88.912V90.256H40.0226V100H38.4706V90.256H34.9826V88.912H43.5106ZM45.0534 100V87.84L46.5414 87.584V91.84C46.8188 91.7333 47.1121 91.6533 47.4214 91.6C47.7414 91.536 48.0561 91.504 48.3654 91.504C49.0268 91.504 49.5761 91.6 50.0134 91.792C50.4508 91.9733 50.7974 92.2347 51.0534 92.576C51.3201 92.9067 51.5068 93.3067 51.6134 93.776C51.7201 94.2453 51.7734 94.7627 51.7734 95.328V100H50.2854V95.648C50.2854 95.136 50.2481 94.6987 50.1734 94.336C50.1094 93.9733 49.9974 93.68 49.8374 93.456C49.6774 93.232 49.4641 93.072 49.1974 92.976C48.9308 92.8693 48.6001 92.816 48.2054 92.816C48.0454 92.816 47.8801 92.8267 47.7094 92.848C47.5388 92.8693 47.3734 92.896 47.2134 92.928C47.0641 92.9493 46.9254 92.976 46.7974 93.008C46.6801 93.04 46.5948 93.0667 46.5414 93.088V100H45.0534ZM53.7301 95.856C53.7301 95.12 53.8367 94.48 54.0501 93.936C54.2634 93.3813 54.5461 92.9227 54.8981 92.56C55.2501 92.1973 55.6554 91.9253 56.1141 91.744C56.5727 91.5627 57.0421 91.472 57.5221 91.472C58.6421 91.472 59.5007 91.824 60.0981 92.528C60.6954 93.2213 60.9941 94.2827 60.9941 95.712C60.9941 95.776 60.9941 95.8613 60.9941 95.968C60.9941 96.064 60.9887 96.1547 60.9781 96.24H55.2821C55.3461 97.104 55.5967 97.76 56.0341 98.208C56.4714 98.656 57.1541 98.88 58.0821 98.88C58.6047 98.88 59.0421 98.8373 59.3941 98.752C59.7567 98.656 60.0287 98.5653 60.2101 98.48L60.4181 99.728C60.2367 99.824 59.9167 99.9253 59.4581 100.032C59.0101 100.139 58.4981 100.192 57.9221 100.192C57.1967 100.192 56.5674 100.085 56.0341 99.872C55.5114 99.648 55.0794 99.344 54.7381 98.96C54.3967 98.576 54.1407 98.1227 53.9701 97.6C53.8101 97.0667 53.7301 96.4853 53.7301 95.856ZM59.4421 95.04C59.4527 94.368 59.2821 93.8187 58.9301 93.392C58.5887 92.9547 58.1141 92.736 57.5061 92.736C57.1647 92.736 56.8607 92.8053 56.5941 92.944C56.3381 93.072 56.1194 93.2427 55.9381 93.456C55.7567 93.6693 55.6127 93.9147 55.5061 94.192C55.4101 94.4693 55.3461 94.752 55.3141 95.04H59.4421ZM69.8747 88.8C71.432 88.8 72.6267 89.0987 73.4587 89.696C74.3014 90.2827 74.7227 91.1627 74.7227 92.336C74.7227 92.976 74.6054 93.5253 74.3707 93.984C74.1467 94.432 73.816 94.8 73.3787 95.088C72.952 95.3653 72.4294 95.568 71.8107 95.696C71.192 95.824 70.4934 95.888 69.7147 95.888H68.4827V100H66.9307V89.072C67.368 88.9653 67.8534 88.896 68.3867 88.864C68.9307 88.8213 69.4267 88.8 69.8747 88.8ZM70.0027 90.16C69.3414 90.16 68.8347 90.176 68.4827 90.208V94.56H69.6507C70.184 94.56 70.664 94.528 71.0907 94.464C71.5174 94.3893 71.8747 94.272 72.1627 94.112C72.4614 93.9413 72.6907 93.712 72.8507 93.424C73.0107 93.136 73.0907 92.768 73.0907 92.32C73.0907 91.8933 73.0054 91.5413 72.8347 91.264C72.6747 90.9867 72.4507 90.768 72.1627 90.608C71.8854 90.4373 71.56 90.32 71.1867 90.256C70.8134 90.192 70.4187 90.16 70.0027 90.16ZM75.5894 95.856C75.5894 95.12 75.6961 94.48 75.9094 93.936C76.1228 93.3813 76.4054 92.9227 76.7574 92.56C77.1094 92.1973 77.5148 91.9253 77.9734 91.744C78.4321 91.5627 78.9014 91.472 79.3814 91.472C80.5014 91.472 81.3601 91.824 81.9574 92.528C82.5548 93.2213 82.8534 94.2827 82.8534 95.712C82.8534 95.776 82.8534 95.8613 82.8534 95.968C82.8534 96.064 82.8481 96.1547 82.8374 96.24H77.1414C77.2054 97.104 77.4561 97.76 77.8934 98.208C78.3308 98.656 79.0134 98.88 79.9414 98.88C80.4641 98.88 80.9014 98.8373 81.2534 98.752C81.6161 98.656 81.8881 98.5653 82.0694 98.48L82.2774 99.728C82.0961 99.824 81.7761 99.9253 81.3174 100.032C80.8694 100.139 80.3574 100.192 79.7814 100.192C79.0561 100.192 78.4268 100.085 77.8934 99.872C77.3708 99.648 76.9388 99.344 76.5974 98.96C76.2561 98.576 76.0001 98.1227 75.8294 97.6C75.6694 97.0667 75.5894 96.4853 75.5894 95.856ZM81.3014 95.04C81.3121 94.368 81.1414 93.8187 80.7894 93.392C80.4481 92.9547 79.9734 92.736 79.3654 92.736C79.0241 92.736 78.7201 92.8053 78.4534 92.944C78.1974 93.072 77.9788 93.2427 77.7974 93.456C77.6161 93.6693 77.4721 93.9147 77.3654 94.192C77.2694 94.4693 77.2054 94.752 77.1734 95.04H81.3014ZM88.0629 91.504C88.1909 91.504 88.3349 91.5147 88.4949 91.536C88.6656 91.5467 88.8309 91.568 88.9909 91.6C89.1509 91.6213 89.2949 91.648 89.4229 91.68C89.5616 91.7013 89.6629 91.7227 89.7269 91.744L89.4709 93.04C89.3536 92.9973 89.1563 92.9493 88.8789 92.896C88.6123 92.832 88.2656 92.8 87.8389 92.8C87.5616 92.8 87.2843 92.832 87.0069 92.896C86.7403 92.9493 86.5643 92.9867 86.4789 93.008V100H84.9909V92.032C85.3429 91.904 85.7803 91.7867 86.3029 91.68C86.8256 91.5627 87.4123 91.504 88.0629 91.504ZM92.6508 100H91.1628V91.68H92.6508V100ZM91.8988 90.176C91.6321 90.176 91.4028 90.0907 91.2108 89.92C91.0295 89.7387 90.9388 89.4987 90.9388 89.2C90.9388 88.9013 91.0295 88.6667 91.2108 88.496C91.4028 88.3147 91.6321 88.224 91.8988 88.224C92.1655 88.224 92.3895 88.3147 92.5708 88.496C92.7628 88.6667 92.8588 88.9013 92.8588 89.2C92.8588 89.4987 92.7628 89.7387 92.5708 89.92C92.3895 90.0907 92.1655 90.176 91.8988 90.176ZM102.554 95.84C102.554 96.5013 102.458 97.0987 102.266 97.632C102.074 98.1653 101.802 98.624 101.45 99.008C101.108 99.392 100.698 99.6907 100.218 99.904C99.7377 100.107 99.215 100.208 98.6497 100.208C98.0844 100.208 97.5617 100.107 97.0817 99.904C96.6017 99.6907 96.1857 99.392 95.8337 99.008C95.4924 98.624 95.2257 98.1653 95.0337 97.632C94.8417 97.0987 94.7457 96.5013 94.7457 95.84C94.7457 95.1893 94.8417 94.5973 95.0337 94.064C95.2257 93.52 95.4924 93.056 95.8337 92.672C96.1857 92.288 96.6017 91.9947 97.0817 91.792C97.5617 91.5787 98.0844 91.472 98.6497 91.472C99.215 91.472 99.7377 91.5787 100.218 91.792C100.698 91.9947 101.108 92.288 101.45 92.672C101.802 93.056 102.074 93.52 102.266 94.064C102.458 94.5973 102.554 95.1893 102.554 95.84ZM101.002 95.84C101.002 94.9013 100.788 94.16 100.362 93.616C99.9457 93.0613 99.375 92.784 98.6497 92.784C97.9244 92.784 97.3484 93.0613 96.9217 93.616C96.5057 94.16 96.2977 94.9013 96.2977 95.84C96.2977 96.7787 96.5057 97.5253 96.9217 98.08C97.3484 98.624 97.9244 98.896 98.6497 98.896C99.375 98.896 99.9457 98.624 100.362 98.08C100.788 97.5253 101.002 96.7787 101.002 95.84ZM110.023 93.44C109.842 93.2907 109.581 93.1467 109.239 93.008C108.898 92.8693 108.525 92.8 108.119 92.8C107.693 92.8 107.325 92.88 107.015 93.04C106.717 93.1893 106.471 93.4027 106.279 93.68C106.087 93.9467 105.949 94.2667 105.863 94.64C105.778 95.0133 105.735 95.4133 105.735 95.84C105.735 96.8107 105.975 97.5627 106.455 98.096C106.935 98.6187 107.575 98.88 108.375 98.88C108.781 98.88 109.117 98.864 109.383 98.832C109.661 98.7893 109.874 98.7467 110.023 98.704V93.44ZM110.023 87.84L111.511 87.584V99.76C111.17 99.856 110.733 99.952 110.199 100.048C109.666 100.144 109.053 100.192 108.359 100.192C107.719 100.192 107.143 100.091 106.631 99.888C106.119 99.6853 105.682 99.3973 105.319 99.024C104.957 98.6507 104.674 98.1973 104.471 97.664C104.279 97.12 104.183 96.512 104.183 95.84C104.183 95.2 104.263 94.6133 104.423 94.08C104.594 93.5467 104.839 93.088 105.159 92.704C105.479 92.32 105.869 92.0213 106.327 91.808C106.797 91.5947 107.33 91.488 107.927 91.488C108.407 91.488 108.829 91.552 109.191 91.68C109.565 91.808 109.842 91.9307 110.023 92.048V87.84ZM115.557 100H114.069V91.68H115.557V100ZM114.805 90.176C114.538 90.176 114.309 90.0907 114.117 89.92C113.936 89.7387 113.845 89.4987 113.845 89.2C113.845 88.9013 113.936 88.6667 114.117 88.496C114.309 88.3147 114.538 88.224 114.805 88.224C115.072 88.224 115.296 88.3147 115.477 88.496C115.669 88.6667 115.765 88.9013 115.765 89.2C115.765 89.4987 115.669 89.7387 115.477 89.92C115.296 90.0907 115.072 90.176 114.805 90.176ZM121.732 100.192C121.06 100.192 120.468 100.085 119.956 99.872C119.455 99.6587 119.028 99.36 118.676 98.976C118.335 98.592 118.079 98.1387 117.908 97.616C117.737 97.0827 117.652 96.496 117.652 95.856C117.652 95.216 117.743 94.6293 117.924 94.096C118.116 93.5627 118.383 93.104 118.724 92.72C119.065 92.3253 119.481 92.0213 119.972 91.808C120.473 91.584 121.028 91.472 121.636 91.472C122.009 91.472 122.383 91.504 122.756 91.568C123.129 91.632 123.487 91.7333 123.828 91.872L123.492 93.136C123.268 93.0293 123.007 92.944 122.708 92.88C122.42 92.816 122.111 92.784 121.78 92.784C120.948 92.784 120.308 93.0453 119.86 93.568C119.423 94.0907 119.204 94.8533 119.204 95.856C119.204 96.304 119.252 96.7147 119.348 97.088C119.455 97.4613 119.615 97.7813 119.828 98.048C120.052 98.3147 120.335 98.5227 120.676 98.672C121.017 98.8107 121.433 98.88 121.924 98.88C122.319 98.88 122.676 98.8427 122.996 98.768C123.316 98.6933 123.567 98.6133 123.748 98.528L123.956 99.776C123.871 99.8293 123.748 99.8827 123.588 99.936C123.428 99.9787 123.247 100.016 123.044 100.048C122.841 100.091 122.623 100.123 122.388 100.144C122.164 100.176 121.945 100.192 121.732 100.192ZM51.9715 106.912V108.256H48.4835V118H46.9315V108.256H43.4435V106.912H51.9715ZM55.6116 116.928C55.9636 116.928 56.273 116.923 56.5396 116.912C56.817 116.891 57.0463 116.859 57.2276 116.816V114.336C57.121 114.283 56.945 114.24 56.6996 114.208C56.465 114.165 56.177 114.144 55.8356 114.144C55.6116 114.144 55.3716 114.16 55.1156 114.192C54.8703 114.224 54.641 114.293 54.4276 114.4C54.225 114.496 54.0543 114.635 53.9156 114.816C53.777 114.987 53.7076 115.216 53.7076 115.504C53.7076 116.037 53.8783 116.411 54.2196 116.624C54.561 116.827 55.025 116.928 55.6116 116.928ZM55.4836 109.472C56.081 109.472 56.5823 109.552 56.9876 109.712C57.4036 109.861 57.7343 110.08 57.9796 110.368C58.2356 110.645 58.417 110.981 58.5236 111.376C58.6303 111.76 58.6836 112.187 58.6836 112.656V117.856C58.5556 117.877 58.3743 117.909 58.1396 117.952C57.9156 117.984 57.6596 118.016 57.3716 118.048C57.0836 118.08 56.769 118.107 56.4276 118.128C56.097 118.16 55.7663 118.176 55.4356 118.176C54.9663 118.176 54.5343 118.128 54.1396 118.032C53.745 117.936 53.4036 117.787 53.1156 117.584C52.8276 117.371 52.6036 117.093 52.4436 116.752C52.2836 116.411 52.2036 116 52.2036 115.52C52.2036 115.061 52.2943 114.667 52.4756 114.336C52.6676 114.005 52.9236 113.739 53.2436 113.536C53.5636 113.333 53.937 113.184 54.3636 113.088C54.7903 112.992 55.2383 112.944 55.7076 112.944C55.857 112.944 56.0116 112.955 56.1716 112.976C56.3316 112.987 56.481 113.008 56.6196 113.04C56.769 113.061 56.897 113.083 57.0036 113.104C57.1103 113.125 57.185 113.141 57.2276 113.152V112.736C57.2276 112.491 57.201 112.251 57.1476 112.016C57.0943 111.771 56.9983 111.557 56.8596 111.376C56.721 111.184 56.529 111.035 56.2836 110.928C56.049 110.811 55.7396 110.752 55.3556 110.752C54.865 110.752 54.433 110.789 54.0596 110.864C53.697 110.928 53.425 110.997 53.2436 111.072L53.0676 109.84C53.2596 109.755 53.5796 109.675 54.0276 109.6C54.4756 109.515 54.961 109.472 55.4836 109.472ZM62.643 110.048C62.8243 109.931 63.0963 109.808 63.459 109.68C63.8323 109.552 64.259 109.488 64.739 109.488C65.3363 109.488 65.8643 109.595 66.323 109.808C66.7923 110.021 67.187 110.32 67.507 110.704C67.827 111.088 68.067 111.547 68.227 112.08C68.3977 112.613 68.483 113.2 68.483 113.84C68.483 114.512 68.3817 115.12 68.179 115.664C67.987 116.197 67.7097 116.651 67.347 117.024C66.9843 117.397 66.547 117.685 66.035 117.888C65.523 118.091 64.947 118.192 64.307 118.192C63.6137 118.192 63.0003 118.144 62.467 118.048C61.9337 117.952 61.4963 117.856 61.155 117.76V105.84L62.643 105.584V110.048ZM62.643 116.704C62.7923 116.747 63.0003 116.789 63.267 116.832C63.5443 116.864 63.8857 116.88 64.291 116.88C65.091 116.88 65.731 116.619 66.211 116.096C66.691 115.563 66.931 114.811 66.931 113.84C66.931 113.413 66.8883 113.013 66.803 112.64C66.7177 112.267 66.579 111.947 66.387 111.68C66.195 111.403 65.9443 111.189 65.635 111.04C65.3363 110.88 64.9737 110.8 64.547 110.8C64.1417 110.8 63.7683 110.869 63.427 111.008C63.0857 111.147 62.8243 111.291 62.643 111.44V116.704ZM73.0729 118.16C72.1555 118.139 71.5049 117.941 71.1209 117.568C70.7369 117.195 70.5449 116.613 70.5449 115.824V105.84L72.0329 105.584V115.584C72.0329 115.829 72.0542 116.032 72.0969 116.192C72.1395 116.352 72.2089 116.48 72.3049 116.576C72.4009 116.672 72.5289 116.747 72.6889 116.8C72.8489 116.843 73.0462 116.88 73.2809 116.912L73.0729 118.16ZM74.4879 113.856C74.4879 113.12 74.5945 112.48 74.8079 111.936C75.0212 111.381 75.3039 110.923 75.6559 110.56C76.0079 110.197 76.4132 109.925 76.8719 109.744C77.3305 109.563 77.7999 109.472 78.2799 109.472C79.3999 109.472 80.2585 109.824 80.8559 110.528C81.4532 111.221 81.7519 112.283 81.7519 113.712C81.7519 113.776 81.7519 113.861 81.7519 113.968C81.7519 114.064 81.7465 114.155 81.7359 114.24H76.0399C76.1039 115.104 76.3545 115.76 76.7919 116.208C77.2292 116.656 77.9119 116.88 78.8399 116.88C79.3625 116.88 79.7999 116.837 80.1519 116.752C80.5145 116.656 80.7865 116.565 80.9679 116.48L81.1759 117.728C80.9945 117.824 80.6745 117.925 80.2159 118.032C79.7679 118.139 79.2559 118.192 78.6799 118.192C77.9545 118.192 77.3252 118.085 76.7919 117.872C76.2692 117.648 75.8372 117.344 75.4959 116.96C75.1545 116.576 74.8985 116.123 74.7279 115.6C74.5679 115.067 74.4879 114.485 74.4879 113.856ZM80.1999 113.04C80.2105 112.368 80.0399 111.819 79.6879 111.392C79.3465 110.955 78.8719 110.736 78.2639 110.736C77.9225 110.736 77.6185 110.805 77.3519 110.944C77.0959 111.072 76.8772 111.243 76.6959 111.456C76.5145 111.669 76.3705 111.915 76.2639 112.192C76.1679 112.469 76.1039 112.752 76.0719 113.04H80.1999ZM95.2885 118C95.0538 117.605 94.7818 117.163 94.4725 116.672C94.1738 116.181 93.8485 115.675 93.4965 115.152C93.1445 114.619 92.7765 114.08 92.3925 113.536C92.0192 112.992 91.6458 112.469 91.2725 111.968C90.8992 111.456 90.5365 110.976 90.1845 110.528C89.8325 110.08 89.5072 109.685 89.2085 109.344V118H87.6885V106.912H88.9205C89.4218 107.445 89.9552 108.069 90.5205 108.784C91.0965 109.488 91.6618 110.219 92.2165 110.976C92.7818 111.723 93.3098 112.459 93.8005 113.184C94.3018 113.909 94.7232 114.555 95.0645 115.12V106.912H96.5845V118H95.2885ZM99.3291 118V106.912H106.017V108.24H100.881V111.584H105.441V112.896H100.881V118H99.3291ZM115.55 106.912V108.256H112.062V118H110.51V108.256H107.022V106.912H115.55Z" fill="white"/>
<path d="M19.367 143.944C19.2937 143.768 19.1947 143.544 19.07 143.273C18.9527 143.002 18.8243 142.708 18.685 142.393C18.5457 142.078 18.3953 141.755 18.234 141.425C18.08 141.088 17.9333 140.772 17.794 140.479C17.6547 140.178 17.5227 139.911 17.398 139.676C17.2807 139.441 17.1853 139.262 17.112 139.137C17.0313 140.002 16.9653 140.941 16.914 141.953C16.8627 142.958 16.8187 143.973 16.782 145H15.737C15.7663 144.34 15.7993 143.676 15.836 143.009C15.8727 142.334 15.913 141.674 15.957 141.029C16.0083 140.376 16.0597 139.742 16.111 139.126C16.1697 138.51 16.232 137.927 16.298 137.377H17.233C17.431 137.7 17.6437 138.081 17.871 138.521C18.0983 138.961 18.3257 139.423 18.553 139.907C18.7803 140.384 19.0003 140.864 19.213 141.348C19.4257 141.825 19.62 142.261 19.796 142.657C19.972 142.261 20.1663 141.825 20.379 141.348C20.5917 140.864 20.8117 140.384 21.039 139.907C21.2663 139.423 21.4937 138.961 21.721 138.521C21.9483 138.081 22.161 137.7 22.359 137.377H23.294C23.5433 139.834 23.7303 142.375 23.855 145H22.81C22.7733 143.973 22.7293 142.958 22.678 141.953C22.6267 140.941 22.5607 140.002 22.48 139.137C22.4067 139.262 22.3077 139.441 22.183 139.676C22.0657 139.911 21.9373 140.178 21.798 140.479C21.6587 140.772 21.5083 141.088 21.347 141.425C21.193 141.755 21.0463 142.078 20.907 142.393C20.7677 142.708 20.6357 143.002 20.511 143.273C20.3937 143.544 20.2983 143.768 20.225 143.944H19.367ZM26.672 144.406C26.672 144.604 26.606 144.776 26.474 144.923C26.342 145.07 26.1624 145.143 25.935 145.143C25.7077 145.143 25.528 145.07 25.396 144.923C25.264 144.776 25.198 144.604 25.198 144.406C25.198 144.208 25.264 144.036 25.396 143.889C25.528 143.742 25.7077 143.669 25.935 143.669C26.1624 143.669 26.342 143.742 26.474 143.889C26.606 144.036 26.672 144.208 26.672 144.406ZM28.1691 139.445C28.4037 139.386 28.7117 139.324 29.0931 139.258C29.4817 139.192 29.9291 139.159 30.4351 139.159C30.8017 139.159 31.1097 139.21 31.3591 139.313C31.6084 139.408 31.8174 139.551 31.9861 139.742C32.0374 139.705 32.1181 139.654 32.2281 139.588C32.3381 139.522 32.4737 139.46 32.6351 139.401C32.7964 139.335 32.9761 139.28 33.1741 139.236C33.3721 139.185 33.5847 139.159 33.8121 139.159C34.2521 139.159 34.6114 139.225 34.8901 139.357C35.1687 139.482 35.3851 139.661 35.5391 139.896C35.7004 140.131 35.8067 140.409 35.8581 140.732C35.9167 141.055 35.9461 141.407 35.9461 141.788V145H34.9231V142.008C34.9231 141.671 34.9047 141.381 34.8681 141.139C34.8387 140.897 34.7764 140.695 34.6811 140.534C34.5931 140.373 34.4684 140.255 34.3071 140.182C34.1531 140.101 33.9514 140.061 33.7021 140.061C33.3574 140.061 33.0714 140.109 32.8441 140.204C32.6241 140.292 32.4737 140.373 32.3931 140.446C32.4517 140.637 32.4957 140.846 32.5251 141.073C32.5544 141.3 32.5691 141.539 32.5691 141.788V145H31.5461V142.008C31.5461 141.671 31.5277 141.381 31.4911 141.139C31.4544 140.897 31.3884 140.695 31.2931 140.534C31.2051 140.373 31.0804 140.255 30.9191 140.182C30.7651 140.101 30.5671 140.061 30.3251 140.061C30.2224 140.061 30.1124 140.065 29.9951 140.072C29.8777 140.079 29.7641 140.09 29.6541 140.105C29.5514 140.112 29.4561 140.123 29.3681 140.138C29.2801 140.153 29.2214 140.164 29.1921 140.171V145H28.1691V139.445ZM37.6437 139.445C37.8783 139.386 38.1863 139.324 38.5677 139.258C38.9563 139.192 39.4037 139.159 39.9097 139.159C40.2763 139.159 40.5843 139.21 40.8337 139.313C41.083 139.408 41.292 139.551 41.4607 139.742C41.512 139.705 41.5927 139.654 41.7027 139.588C41.8127 139.522 41.9483 139.46 42.1097 139.401C42.271 139.335 42.4507 139.28 42.6487 139.236C42.8467 139.185 43.0593 139.159 43.2867 139.159C43.7267 139.159 44.086 139.225 44.3647 139.357C44.6433 139.482 44.8597 139.661 45.0137 139.896C45.175 140.131 45.2813 140.409 45.3327 140.732C45.3913 141.055 45.4207 141.407 45.4207 141.788V145H44.3977V142.008C44.3977 141.671 44.3793 141.381 44.3427 141.139C44.3133 140.897 44.251 140.695 44.1557 140.534C44.0677 140.373 43.943 140.255 43.7817 140.182C43.6277 140.101 43.426 140.061 43.1767 140.061C42.832 140.061 42.546 140.109 42.3187 140.204C42.0987 140.292 41.9483 140.373 41.8677 140.446C41.9263 140.637 41.9703 140.846 41.9997 141.073C42.029 141.3 42.0437 141.539 42.0437 141.788V145H41.0207V142.008C41.0207 141.671 41.0023 141.381 40.9657 141.139C40.929 140.897 40.863 140.695 40.7677 140.534C40.6797 140.373 40.555 140.255 40.3937 140.182C40.2397 140.101 40.0417 140.061 39.7997 140.061C39.697 140.061 39.587 140.065 39.4697 140.072C39.3523 140.079 39.2387 140.09 39.1287 140.105C39.026 140.112 38.9307 140.123 38.8427 140.138C38.7547 140.153 38.696 140.164 38.6667 140.171V145H37.6437V139.445ZM47.1183 139.445C47.3529 139.386 47.6609 139.324 48.0423 139.258C48.4309 139.192 48.8783 139.159 49.3843 139.159C49.7509 139.159 50.0589 139.21 50.3083 139.313C50.5576 139.408 50.7666 139.551 50.9353 139.742C50.9866 139.705 51.0673 139.654 51.1773 139.588C51.2873 139.522 51.4229 139.46 51.5843 139.401C51.7456 139.335 51.9253 139.28 52.1233 139.236C52.3213 139.185 52.5339 139.159 52.7613 139.159C53.2013 139.159 53.5606 139.225 53.8393 139.357C54.1179 139.482 54.3343 139.661 54.4883 139.896C54.6496 140.131 54.7559 140.409 54.8073 140.732C54.8659 141.055 54.8953 141.407 54.8953 141.788V145H53.8723V142.008C53.8723 141.671 53.8539 141.381 53.8173 141.139C53.7879 140.897 53.7256 140.695 53.6303 140.534C53.5423 140.373 53.4176 140.255 53.2563 140.182C53.1023 140.101 52.9006 140.061 52.6513 140.061C52.3066 140.061 52.0206 140.109 51.7933 140.204C51.5733 140.292 51.4229 140.373 51.3423 140.446C51.4009 140.637 51.4449 140.846 51.4743 141.073C51.5036 141.3 51.5183 141.539 51.5183 141.788V145H50.4953V142.008C50.4953 141.671 50.4769 141.381 50.4403 141.139C50.4036 140.897 50.3376 140.695 50.2423 140.534C50.1543 140.373 50.0296 140.255 49.8683 140.182C49.7143 140.101 49.5163 140.061 49.2743 140.061C49.1716 140.061 49.0616 140.065 48.9443 140.072C48.8269 140.079 48.7133 140.09 48.6033 140.105C48.5006 140.112 48.4053 140.123 48.3173 140.138C48.2293 140.153 48.1706 140.164 48.1413 140.171V145H47.1183V139.445Z" fill="white"/>
<defs>
<filter id="filter0_d_26_828" x="0" y="0" width="160" height="160" filterUnits="userSpaceOnUse" color-interpolation-filters="sRGB">
<feFlood flood-opacity="0" result="BackgroundImageFix"/>
<feColorMatrix in="SourceAlpha" type="matrix" values="0 0 0 0 0 0 0 0 0 0 0 0 0 0 0 0 0 0 127 0" result="hardAlpha"/>
<feMorphology radius="2.5" operator="dilate" in="SourceAlpha" result="effect1_dropShadow_26_828"/>
<feOffset/>
<feGaussianBlur stdDeviation="1.75"/>
<feComposite in2="hardAlpha" operator="out"/>
<feColorMatrix type="matrix" values="0 0 0 0 0.988235 0 0 0 0 0.529412 0 0 0 0 0.00392157 0 0 0 0.8 0"/>
<feBlend mode="normal" in2="BackgroundImageFix" result="effect1_dropShadow_26_828"/>
<feBlend mode="normal" in="SourceGraphic" in2="effect1_dropShadow_26_828" result="shape"/>
</filter>
<filter id="filter1_i_26_828" x="10" y="10" width="140" height="140" filterUnits="userSpaceOnUse" color-interpolation-filters="sRGB">
<feFlood flood-opacity="0" result="BackgroundImageFix"/>
<feBlend mode="normal" in="SourceGraphic" in2="BackgroundImageFix" result="shape"/>
<feColorMatrix in="SourceAlpha" type="matrix" values="0 0 0 0 0 0 0 0 0 0 0 0 0 0 0 0 0 0 127 0" result="hardAlpha"/>
<feMorphology radius="3" operator="erode" in="SourceAlpha" result="effect1_innerShadow_26_828"/>
<feOffset/>
<feGaussianBlur stdDeviation="1"/>
<feComposite in2="hardAlpha" operator="arithmetic" k2="-1" k3="1"/>
<feColorMatrix type="matrix" values="0 0 0 0 0 0 0 0 0 0 0 0 0 0 0 0 0 0 0.08 0"/>
<feBlend mode="normal" in2="shape" result="effect1_innerShadow_26_828"/>
</filter>
<filter id="filter2_d_26_828" x="63.4039" y="49.28" width="34.2" height="35.72" filterUnits="userSpaceOnUse" color-interpolation-filters="sRGB">
<feFlood flood-opacity="0" result="BackgroundImageFix"/>
<feColorMatrix in="SourceAlpha" type="matrix" values="0 0 0 0 0 0 0 0 0 0 0 0 0 0 0 0 0 0 127 0" result="hardAlpha"/>
<feOffset dx="0.5" dy="1"/>
<feGaussianBlur stdDeviation="2"/>
<feComposite in2="hardAlpha" operator="out"/>
<feColorMatrix type="matrix" values="0 0 0 0 0 0 0 0 0 0 0 0 0 0 0 0 0 0 0.25 0"/>
<feBlend mode="normal" in2="BackgroundImageFix" result="effect1_dropShadow_26_828"/>
<feBlend mode="normal" in="SourceGraphic" in2="effect1_dropShadow_26_828" result="shape"/>
</filter>
</defs>
</svg>
